<?xml version="1.0" standalone="no"?>
<!DOCTYPE svg PUBLIC "-//W3C//DTD SVG 20010904//EN"
 "http://www.w3.org/TR/2001/REC-SVG-20010904/DTD/svg10.dtd">
<svg version="1.0" xmlns="http://www.w3.org/2000/svg"
 width="1260.000000pt" height="1260.000000pt" viewBox="0 0 1260.000000 1260.000000"
 preserveAspectRatio="xMidYMid meet">
<metadata>
Created by potrace 1.16, written by Peter Selinger 2001-2019
</metadata>
<g transform="translate(0.000000,1260.000000) scale(0.100000,-0.100000)"
fill="#000000" stroke="none">
<path d="M6030 12589 c-540 -51 -1050 -258 -1484 -602 -132 -105 -3821 -3792
-3929 -3927 -314 -393 -517 -861 -593 -1362 -25 -164 -30 -534 -10 -708 63
-539 264 -1024 602 -1450 88 -111 3813 -3836 3924 -3924 408 -324 877 -524
1400 -598 147 -20 605 -17 750 5 531 83 950 265 1370 596 95 75 3611 3575
3808 3791 497 545 753 1238 729 1975 -7 203 -17 295 -53 475 -87 434 -277 839
-564 1200 -116 147 -3774 3804 -3920 3920 -521 414 -1125 624 -1780 619 -91
-1 -203 -5 -250 -10z m551 -1318 c202 -41 371 -111 549 -228 112 -74 158 -118
1976 -1937 1772 -1771 1865 -1866 1933 -1969 120 -182 197 -370 237 -577 27
-141 25 -390 -4 -535 -49 -249 -143 -454 -297 -650 -35 -44 -888 -904 -1897
-1911 -1990 -1987 -1899 -1901 -2123 -2009 -128 -62 -228 -97 -369 -127 -147
-32 -426 -32 -576 1 -204 44 -371 114 -545 228 -93 61 -232 198 -1971 1937
-1618 1618 -1879 1883 -1931 1961 -114 170 -190 348 -235 551 -32 146 -32 435
1 584 44 204 114 371 228 545 61 93 198 233 1937 1971 1740 1741 1878 1876
1972 1938 210 138 426 215 694 250 76 9 327 -4 421 -23z"/>
<path d="M5695 10766 c-22 -7 -51 -18 -65 -25 -14 -7 -195 -182 -402 -389
l-378 -377 -1 -1505 c-1 -828 -4 -1780 -8 -2117 l-6 -611 -31 -38 c-17 -21
-50 -49 -74 -61 l-43 -23 -536 0 c-329 0 -550 4 -572 10 -52 15 -126 83 -139
128 -6 24 -10 423 -10 1160 0 970 -2 1127 -15 1158 -42 100 -134 164 -238 164
l-59 0 -276 -269 c-460 -447 -946 -942 -994 -1011 -136 -195 -208 -427 -208
-670 0 -257 80 -499 232 -701 34 -45 660 -675 1585 -1594 2041 -2029 2123
-2110 2158 -2128 99 -48 239 -47 342 3 77 38 118 86 143 167 18 60 19 174 35
4085 9 2213 15 4113 13 4223 l-3 201 -33 66 c-39 80 -96 133 -166 153 -60 18
-196 18 -251 1z"/>
<path d="M6661 10768 c-89 -25 -166 -110 -198 -217 -14 -49 -14 -433 1 -4250
19 -4631 12 -4257 81 -4353 25 -34 52 -55 102 -80 63 -31 74 -33 168 -33 81 0
109 4 147 22 36 16 141 113 423 390 l375 367 0 1085 0 1085 87 -95 c138 -150
203 -210 293 -270 153 -102 307 -168 480 -205 105 -23 410 -26 505 -6 181 39
326 109 450 217 104 91 1103 1093 1146 1150 181 238 262 522 238 825 -15 184
-71 356 -170 516 -60 99 8 29 -2486 2537 l-1291 1298 -68 14 c-78 16 -231 18
-283 3z m2489 -3977 c304 -318 315 -335 315 -496 0 -156 -9 -170 -294 -458
-209 -211 -244 -242 -306 -272 -146 -72 -326 -66 -485 15 -23 12 -50 23 -60
25 -29 6 -196 112 -273 175 -75 60 -233 218 -260 261 -14 21 -16 146 -23 1084
l-7 1060 571 -565 c313 -311 684 -684 822 -829z"/>
</g>
</svg>
