<?xml version="1.0" encoding="UTF-8"?>
<svg xmlns="http://www.w3.org/2000/svg" xmlns:xlink="http://www.w3.org/1999/xlink" width="788pt" height="787pt" viewBox="0 0 788 787" version="1.1">
<g id="surface1">
<path style=" stroke:none;fill-rule:nonzero;fill:rgb(0%,0%,0%);fill-opacity:1;" d="M 377.113281 0.6875 C 343.34375 3.871094 311.449219 16.800781 284.304688 38.289062 C 276.050781 44.847656 45.339844 275.136719 38.585938 283.570312 C 18.949219 308.117188 6.253906 337.347656 1.5 368.640625 C -0.0625 378.882812 -0.375 401.996094 0.875 412.863281 C 4.816406 446.527344 17.386719 476.820312 38.523438 503.429688 C 44.027344 510.363281 276.988281 743.027344 283.929688 748.523438 C 309.445312 768.761719 338.777344 781.253906 371.484375 785.875 C 380.679688 787.125 409.320312 786.9375 418.390625 785.5625 C 451.597656 780.378906 477.804688 769.011719 504.070312 748.335938 C 510.011719 743.652344 729.902344 525.042969 742.222656 511.550781 C 773.304688 477.507812 789.3125 434.222656 787.8125 388.191406 C 787.375 375.511719 786.75 369.765625 784.496094 358.523438 C 779.058594 331.414062 767.175781 306.117188 749.226562 283.570312 C 741.972656 274.386719 513.199219 45.972656 504.070312 38.726562 C 471.488281 12.867188 433.710938 -0.25 392.75 0.0625 C 387.058594 0.125 380.054688 0.375 377.113281 0.6875 Z M 411.574219 83.007812 C 424.207031 85.570312 434.777344 89.941406 445.90625 97.25 C 452.914062 101.871094 455.789062 104.621094 569.488281 218.238281 C 680.308594 328.855469 686.121094 334.789062 690.375 341.222656 C 697.878906 352.589844 702.695312 364.332031 705.199219 377.261719 C 706.886719 386.066406 706.761719 401.621094 704.949219 410.675781 C 701.882812 426.230469 696.003906 439.035156 686.371094 451.277344 C 684.183594 454.023438 630.835938 507.738281 567.734375 570.636719 C 443.28125 694.746094 448.972656 689.375 434.964844 696.121094 C 426.957031 699.992188 420.703125 702.179688 411.886719 704.050781 C 402.691406 706.050781 385.246094 706.050781 375.863281 703.992188 C 363.105469 701.242188 352.660156 696.871094 341.78125 689.75 C 335.964844 685.9375 327.269531 677.382812 218.511719 568.761719 C 117.324219 467.703125 101 451.152344 97.75 446.277344 C 90.621094 435.660156 85.867188 424.542969 83.050781 411.863281 C 81.050781 402.742188 81.050781 384.691406 83.117188 375.386719 C 85.867188 362.644531 90.246094 352.214844 97.375 341.34375 C 101.1875 335.535156 109.757812 326.792969 218.511719 218.238281 C 327.332031 109.492188 335.964844 101.0625 341.84375 97.1875 C 354.976562 88.570312 368.484375 83.757812 385.246094 81.574219 C 389.996094 81.011719 405.695312 81.824219 411.574219 83.007812 Z M 411.574219 83.007812 "/>
<path style=" stroke:none;fill-rule:nonzero;fill:rgb(0%,0%,0%);fill-opacity:1;" d="M 356.164062 114.550781 C 354.789062 114.988281 352.972656 115.675781 352.097656 116.113281 C 351.222656 116.550781 339.902344 127.480469 326.957031 140.410156 L 303.316406 163.957031 L 303.253906 257.960938 C 303.191406 309.679688 303.003906 369.140625 302.753906 390.191406 L 302.378906 428.351562 L 300.441406 430.726562 C 299.378906 432.039062 297.3125 433.785156 295.8125 434.535156 L 293.125 435.972656 L 259.601562 435.972656 C 239.027344 435.972656 225.207031 435.722656 223.828125 435.347656 C 220.578125 434.410156 215.949219 430.164062 215.136719 427.351562 C 214.761719 425.855469 214.511719 400.933594 214.511719 354.898438 C 214.511719 294.3125 214.386719 284.507812 213.574219 282.570312 C 210.945312 276.324219 205.191406 272.328125 198.6875 272.328125 L 195 272.328125 L 177.738281 289.128906 C 148.96875 317.046875 118.574219 347.964844 115.574219 352.277344 C 107.066406 364.457031 102.566406 378.945312 102.566406 394.125 C 102.566406 410.175781 107.566406 425.292969 117.074219 437.910156 C 119.199219 440.71875 158.351562 480.070312 216.199219 537.472656 C 343.84375 664.203125 348.972656 669.261719 351.160156 670.386719 C 357.351562 673.382812 366.105469 673.320312 372.550781 670.199219 C 377.363281 667.824219 379.929688 664.828125 381.492188 659.769531 C 382.617188 656.019531 382.679688 648.898438 383.679688 404.617188 C 384.242188 266.394531 384.617188 147.71875 384.492188 140.847656 L 384.304688 128.292969 L 382.242188 124.171875 C 379.804688 119.175781 376.238281 115.863281 371.859375 114.613281 C 368.109375 113.492188 359.601562 113.492188 356.164062 114.550781 Z M 356.164062 114.550781 "/>
<path style=" stroke:none;fill-rule:nonzero;fill:rgb(0%,0%,0%);fill-opacity:1;" d="M 416.578125 114.425781 C 411.011719 115.988281 406.195312 121.296875 404.195312 127.980469 C 403.320312 131.042969 403.320312 155.027344 404.257812 393.4375 C 405.445312 682.691406 405.007812 659.332031 409.320312 665.328125 C 410.886719 667.449219 412.574219 668.761719 415.703125 670.324219 C 419.640625 672.261719 420.328125 672.386719 426.207031 672.386719 C 431.273438 672.386719 433.023438 672.136719 435.402344 671.011719 C 437.652344 670.011719 444.21875 663.953125 461.855469 646.652344 L 485.308594 623.730469 L 485.308594 488.191406 L 490.75 494.125 C 499.378906 503.492188 503.445312 507.242188 509.074219 510.988281 C 518.640625 517.359375 528.273438 521.480469 539.09375 523.792969 C 545.660156 525.230469 564.734375 525.417969 570.675781 524.167969 C 581.996094 521.730469 591.0625 517.359375 598.816406 510.613281 C 605.320312 504.929688 667.796875 442.34375 670.488281 438.785156 C 681.808594 423.917969 686.875 406.179688 685.371094 387.253906 C 684.433594 375.761719 680.933594 365.019531 674.742188 355.023438 C 670.988281 348.839844 675.242188 353.214844 519.265625 196.5625 L 438.527344 115.488281 L 434.277344 114.613281 C 429.398438 113.617188 419.828125 113.492188 416.578125 114.425781 Z M 572.238281 362.832031 C 591.25 382.695312 591.9375 383.757812 591.9375 393.8125 C 591.9375 403.554688 591.375 404.429688 573.550781 422.417969 C 560.480469 435.597656 558.292969 437.535156 554.414062 439.410156 C 545.285156 443.90625 534.027344 443.53125 524.082031 438.472656 C 522.644531 437.722656 520.957031 437.035156 520.332031 436.910156 C 518.515625 436.535156 508.074219 429.914062 503.257812 425.980469 C 498.566406 422.230469 488.683594 412.363281 486.996094 409.675781 C 486.121094 408.367188 485.996094 400.558594 485.558594 341.96875 L 485.121094 275.761719 L 520.832031 311.050781 C 540.40625 330.476562 563.609375 353.773438 572.238281 362.832031 Z M 572.238281 362.832031 "/>
</g>
</svg>
